<svg width="19" height="14" viewBox="0 0 19 14" fill="none" xmlns="http://www.w3.org/2000/svg">
<path d="M11.579 1.53C11.579 0.69 10.7207 0 9.66196 0C8.60319 0 7.73863 0.69 7.74489 1.53V5.46503H2.8144C1.7619 5.46503 0.897339 6.15003 0.897339 6.99503C0.897339 7.83503 1.7619 8.52503 2.8144 8.52503H7.74489V12.455C7.74489 13.295 8.60319 13.985 9.66196 13.985C10.7145 13.985 11.579 13.3 11.579 12.455V8.52503H16.5032C17.5557 8.52503 18.4203 7.84003 18.4203 6.99503C18.4203 6.15503 17.562 5.46503 16.5032 5.46503H11.579V1.53Z" fill="#212121"/>
</svg>
