<svg width="24" height="18" viewBox="0 0 24 18" fill="none" xmlns="http://www.w3.org/2000/svg">
<path d="M5.1959 0.574879C4.23548 -0.191626 2.66169 -0.191626 1.70127 0.574879C0.740852 1.34783 0.740852 2.59742 1.70127 3.37037L8.76156 9.00257L1.70935 14.6361C0.748931 15.4026 0.748931 16.6586 1.70935 17.4251C2.66977 18.1916 4.24356 18.1916 5.20398 17.4251L12.2586 11.7923L19.3116 17.4187C20.2721 18.1852 21.8458 18.1852 22.8063 17.4187C23.7667 16.6522 23.7667 15.3961 22.8063 14.6296L15.7541 9.00129L22.8143 3.36393C23.7748 2.59742 23.7748 1.34138 22.8143 0.574879C21.8459 -0.191626 20.2721 -0.191626 19.3116 0.574879L12.257 6.21031L5.1959 0.574879Z" fill="#212121"/>
</svg>
